<svg width="14" height="23" viewBox="0 0 14 23" fill="none" xmlns="http://www.w3.org/2000/svg">
<path d="M0 16.375V5.84375C0 4.63542 0.447917 3.45833 1.34375 2.3125C2.53125 0.791667 4.13542 0.0208333 6.15625 0V4.40625C5.28125 4.42708 4.71875 4.83333 4.46875 5.625C4.42708 5.70833 4.40625 5.78125 4.40625 5.84375V16.375C4.40625 16.7083 4.58333 17.0312 4.9375 17.3438C5.27083 17.6354 5.67708 17.7812 6.15625 17.7812V22.1875C3.82292 22.1875 2.0625 21.2083 0.875 19.25C0.291667 18.25 0 17.2917 0 16.375ZM7.84375 22.1875V17.7812C7.84375 17.7812 8.08333 17.6875 8.5625 17.5C8.85417 17.2917 9.05208 17.0729 9.15625 16.8438C9.26042 16.5729 9.3125 16.1875 9.3125 15.6875V15.3125L13.625 16.3438C13.625 18.1562 12.8958 19.6562 11.4375 20.8438C10.3333 21.7396 9.13542 22.1875 7.84375 22.1875ZM7.84375 4.40625V0C9.36458 0 10.7396 0.666667 11.9688 2C13.0729 3.20833 13.625 4.51042 13.625 5.90625L9.3125 7.03125V6.5625C9.3125 6.04167 9.26042 5.65625 9.15625 5.40625C9.07292 5.19792 8.91667 5.01042 8.6875 4.84375C8.47917 4.67708 8.29167 4.5625 8.125 4.5L7.84375 4.40625Z" fill="white"/>
</svg>
