<svg width="40" height="40" viewBox="0 0 40 40" fill="none" xmlns="http://www.w3.org/2000/svg">
<path d="M33.3334 6.66669H6.66671C4.83337 6.66669 3.35004 8.16669 3.35004 10L3.33337 30C3.33337 31.8334 4.83337 33.3334 6.66671 33.3334H33.3334C35.1667 33.3334 36.6667 31.8334 36.6667 30V10C36.6667 8.16669 35.1667 6.66669 33.3334 6.66669ZM32.6667 13.75L20.8834 21.1167C20.35 21.45 19.65 21.45 19.1167 21.1167L7.33337 13.75C7.16625 13.6562 7.01991 13.5295 6.90319 13.3774C6.78647 13.2254 6.70181 13.0513 6.65433 12.8656C6.60685 12.68 6.59755 12.4866 6.62697 12.2972C6.65639 12.1078 6.72393 11.9264 6.82551 11.7639C6.92709 11.6013 7.06058 11.4611 7.21792 11.3517C7.37525 11.2422 7.55316 11.1659 7.74087 11.1272C7.92857 11.0885 8.12218 11.0883 8.30997 11.1266C8.49775 11.1649 8.67581 11.2409 8.83337 11.35L20 18.3334L31.1667 11.35C31.3243 11.2409 31.5023 11.1649 31.6901 11.1266C31.8779 11.0883 32.0715 11.0885 32.2592 11.1272C32.4469 11.1659 32.6248 11.2422 32.7822 11.3517C32.9395 11.4611 33.073 11.6013 33.1746 11.7639C33.2761 11.9264 33.3437 12.1078 33.3731 12.2972C33.4025 12.4866 33.3932 12.68 33.3457 12.8656C33.2983 13.0513 33.2136 13.2254 33.0969 13.3774C32.9802 13.5295 32.8338 13.6562 32.6667 13.75Z" fill="black"/>
</svg>
